<svg xmlns="http://www.w3.org/2000/svg" xmlns:xlink="http://www.w3.org/1999/xlink" width="500" zoomAndPan="magnify" viewBox="0 0 375 374.999991" height="500" preserveAspectRatio="xMidYMid meet" version="1.0"><defs><clipPath id="b1518be975"><path d="M 0 308 L 13.574219 308 L 13.574219 375 L 0 375 Z M 0 308 " clip-rule="nonzero"/></clipPath><clipPath id="3813e50f96"><path d="M 58.925781 58.925781 L 316.175781 58.925781 L 316.175781 316.175781 L 58.925781 316.175781 Z M 58.925781 58.925781 " clip-rule="nonzero"/></clipPath><clipPath id="3d4a0bc5a9"><path d="M 58.925781 133.925781 L 58.925781 241.074219 C 58.925781 282.492188 92.507812 316.074219 133.925781 316.074219 L 241.074219 316.074219 C 282.492188 316.074219 316.074219 282.492188 316.074219 241.074219 L 316.074219 133.925781 C 316.074219 92.507812 282.492188 58.925781 241.074219 58.925781 L 133.925781 58.925781 C 92.507812 58.925781 58.925781 92.507812 58.925781 133.925781 Z M 58.925781 133.925781 " clip-rule="nonzero"/></clipPath><clipPath id="eaa49d345d"><path d="M 123 123 L 252 123 L 252 252 L 123 252 Z M 123 123 " clip-rule="nonzero"/></clipPath><clipPath id="c13a45eccc"><path d="M 58.925781 133.925781 L 58.925781 241.074219 C 58.925781 282.492188 92.507812 316.074219 133.925781 316.074219 L 241.074219 316.074219 C 282.492188 316.074219 316.074219 282.492188 316.074219 241.074219 L 316.074219 133.925781 C 316.074219 92.507812 282.492188 58.925781 241.074219 58.925781 L 133.925781 58.925781 C 92.507812 58.925781 58.925781 92.507812 58.925781 133.925781 Z M 58.925781 133.925781 " clip-rule="nonzero"/></clipPath></defs><rect x="-37.5" width="450" fill="#ffffff" y="-37.499999" height="449.999989" fill-opacity="1"/><rect x="-37.5" width="450" fill="#053667" y="-37.499999" height="449.999989" fill-opacity="1"/><g clip-path="url(#b1518be975)"><path fill="#cfd8dc" d="M 13.519531 397.390625 L -64.992188 397.390625 L -64.992188 386.664062 C -64.992188 386.664062 -54.128906 361.640625 -25.738281 361.640625 C 2.652344 361.640625 13.519531 386.664062 13.519531 386.664062 Z M -25.738281 350.914062 C -13.910156 350.914062 -4.324219 341.3125 -4.324219 329.464844 C -4.324219 317.617188 -13.910156 308.015625 -25.738281 308.015625 C -37.5625 308.015625 -47.148438 317.617188 -47.148438 329.464844 C -47.148438 341.3125 -37.5625 350.914062 -25.738281 350.914062 " fill-opacity="1" fill-rule="nonzero"/></g><g clip-path="url(#3813e50f96)"><g clip-path="url(#3d4a0bc5a9)"><path fill="#fffeff" d="M 267.859375 316.070312 L 107.140625 316.070312 C 80.511719 316.070312 58.925781 294.488281 58.925781 267.859375 L 58.925781 107.140625 C 58.925781 80.511719 80.511719 58.925781 107.140625 58.925781 L 267.859375 58.925781 C 294.488281 58.925781 316.070312 80.511719 316.070312 107.140625 L 316.070312 267.859375 C 316.070312 294.488281 294.488281 316.070312 267.859375 316.070312 Z M 267.859375 316.070312 " fill-opacity="1" fill-rule="nonzero"/></g></g><g clip-path="url(#eaa49d345d)"><g clip-path="url(#c13a45eccc)"><path fill="#053667" d="M 251.785156 187.476562 C 251.785156 152.578125 223.257812 123.222656 188.039062 123.222656 L 188.039062 123.214844 C 152.859375 123.214844 123.214844 151.484375 123.214844 186.382812 C 123.214844 187.5 123.238281 251.785156 123.238281 251.785156 L 188.039062 251.730469 C 223.265625 251.730469 251.785156 222.375 251.785156 187.476562 Z M 148.605469 226.53125 L 155.179688 205 C 152.367188 199.8125 150.761719 193.839844 150.761719 187.5 C 150.761719 167.210938 167.210938 150.769531 187.5 150.769531 C 207.789062 150.769531 224.238281 167.210938 224.238281 187.5 C 224.238281 207.789062 207.796875 224.230469 187.507812 224.230469 C 181.945312 224.230469 176.628906 222.992188 171.894531 220.761719 Z M 148.605469 226.53125 " fill-opacity="1" fill-rule="nonzero"/></g></g></svg>