<svg xmlns="http://www.w3.org/2000/svg" xmlns:xlink="http://www.w3.org/1999/xlink" width="500" zoomAndPan="magnify" viewBox="0 0 375 374.999991" height="500" preserveAspectRatio="xMidYMid meet" version="1.0"><defs><g/><clipPath id="82d907f82d"><path d="M 0 308 L 13.574219 308 L 13.574219 375 L 0 375 Z M 0 308 " clip-rule="nonzero"/></clipPath><clipPath id="48907ad199"><path d="M 88.871094 163.285156 L 137.621094 163.285156 L 137.621094 212 L 88.871094 212 Z M 88.871094 163.285156 " clip-rule="nonzero"/></clipPath><clipPath id="d2b89a778d"><path d="M 88.871094 187.5 C 88.871094 200.875 99.714844 211.714844 113.085938 211.714844 C 126.460938 211.714844 137.300781 200.875 137.300781 187.5 C 137.300781 174.125 126.460938 163.285156 113.085938 163.285156 C 99.714844 163.285156 88.871094 174.125 88.871094 187.5 Z M 88.871094 187.5 " clip-rule="nonzero"/></clipPath><clipPath id="a143853f99"><path d="M 100 175 L 126 175 L 126 200 L 100 200 Z M 100 175 " clip-rule="nonzero"/></clipPath><clipPath id="1bdbec6ba8"><path d="M 88.871094 187.5 C 88.871094 200.875 99.714844 211.714844 113.085938 211.714844 C 126.460938 211.714844 137.300781 200.875 137.300781 187.5 C 137.300781 174.125 126.460938 163.285156 113.085938 163.285156 C 99.714844 163.285156 88.871094 174.125 88.871094 187.5 Z M 88.871094 187.5 " clip-rule="nonzero"/></clipPath></defs><rect x="-37.5" width="450" fill="#ffffff" y="-37.499999" height="449.999989" fill-opacity="1"/><rect x="-37.5" width="450" fill="#ffffff" y="-37.499999" height="449.999989" fill-opacity="1"/><g clip-path="url(#82d907f82d)"><path fill="#cfd8dc" d="M 13.519531 397.390625 L -64.992188 397.390625 L -64.992188 386.664062 C -64.992188 386.664062 -54.128906 361.640625 -25.738281 361.640625 C 2.652344 361.640625 13.519531 386.664062 13.519531 386.664062 Z M -25.738281 350.914062 C -13.910156 350.914062 -4.324219 341.3125 -4.324219 329.464844 C -4.324219 317.617188 -13.910156 308.015625 -25.738281 308.015625 C -37.5625 308.015625 -47.148438 317.617188 -47.148438 329.464844 C -47.148438 341.3125 -37.5625 350.914062 -25.738281 350.914062 " fill-opacity="1" fill-rule="nonzero"/></g><g clip-path="url(#48907ad199)"><g clip-path="url(#d2b89a778d)"><path fill="#053667" d="M 128.214844 211.707031 L 97.953125 211.707031 C 92.9375 211.707031 88.871094 207.644531 88.871094 202.628906 L 88.871094 172.363281 C 88.871094 167.351562 92.9375 163.285156 97.953125 163.285156 L 128.214844 163.285156 C 133.230469 163.285156 137.292969 167.351562 137.292969 172.363281 L 137.292969 202.628906 C 137.292969 207.644531 133.230469 211.707031 128.214844 211.707031 Z M 128.214844 211.707031 " fill-opacity="1" fill-rule="nonzero"/></g></g><g clip-path="url(#a143853f99)"><g clip-path="url(#1bdbec6ba8)"><path fill="#fffeff" d="M 125.1875 187.492188 C 125.1875 180.921875 119.816406 175.390625 113.183594 175.390625 C 106.5625 175.390625 100.976562 180.714844 100.976562 187.285156 C 100.976562 187.496094 100.984375 199.601562 100.984375 199.601562 L 113.183594 199.589844 C 119.820312 199.589844 125.1875 194.0625 125.1875 187.492188 Z M 105.761719 194.847656 L 106.996094 190.792969 C 106.46875 189.816406 106.164062 188.691406 106.164062 187.496094 C 106.164062 183.675781 109.261719 180.578125 113.082031 180.578125 C 116.90625 180.578125 120.003906 183.675781 120.003906 187.496094 C 120.003906 191.316406 116.90625 194.414062 113.085938 194.414062 C 112.039062 194.414062 111.035156 194.179688 110.144531 193.757812 Z M 105.761719 194.847656 " fill-opacity="1" fill-rule="nonzero"/></g></g><g fill="#ffffff" fill-opacity="1"><g transform="translate(142.68997, 196.301163)"><g><path d="M 6.875 0.28125 C 5.769531 0.28125 4.742188 0.0625 3.796875 -0.375 C 2.859375 -0.820312 2.09375 -1.457031 1.5 -2.28125 C 1.269531 -2.625 1.15625 -2.960938 1.15625 -3.296875 C 1.15625 -3.773438 1.34375 -4.175781 1.71875 -4.5 C 2.09375 -4.832031 2.460938 -5 2.828125 -5 C 3.117188 -5 3.398438 -4.910156 3.671875 -4.734375 C 3.953125 -4.554688 4.210938 -4.351562 4.453125 -4.125 C 4.835938 -3.78125 5.21875 -3.535156 5.59375 -3.390625 C 5.96875 -3.242188 6.394531 -3.171875 6.875 -3.171875 C 7.445312 -3.171875 7.984375 -3.316406 8.484375 -3.609375 C 8.984375 -3.898438 9.382812 -4.285156 9.6875 -4.765625 C 10 -5.242188 10.15625 -5.765625 10.15625 -6.328125 L 10.15625 -18.453125 C 10.15625 -18.953125 10.335938 -19.367188 10.703125 -19.703125 C 11.078125 -20.046875 11.503906 -20.21875 11.984375 -20.21875 C 12.523438 -20.21875 12.957031 -20.046875 13.28125 -19.703125 C 13.601562 -19.367188 13.765625 -18.953125 13.765625 -18.453125 L 13.765625 -6.328125 C 13.765625 -5.148438 13.457031 -4.0625 12.84375 -3.0625 C 12.226562 -2.0625 11.398438 -1.253906 10.359375 -0.640625 C 9.328125 -0.0234375 8.164062 0.28125 6.875 0.28125 Z M 6.875 0.28125 "/></g></g></g><g fill="#ffffff" fill-opacity="1"><g transform="translate(158.631177, 196.301163)"><g><path d="M 16.515625 -20.234375 C 17.015625 -20.234375 17.414062 -20.066406 17.71875 -19.734375 C 18.03125 -19.398438 18.1875 -18.984375 18.1875 -18.484375 L 18.1875 -8.03125 C 18.1875 -6.425781 17.84375 -5.007812 17.15625 -3.78125 C 16.476562 -2.550781 15.539062 -1.585938 14.34375 -0.890625 C 13.15625 -0.203125 11.769531 0.140625 10.1875 0.140625 C 8.613281 0.140625 7.222656 -0.203125 6.015625 -0.890625 C 4.816406 -1.585938 3.875 -2.550781 3.1875 -3.78125 C 2.507812 -5.007812 2.171875 -6.425781 2.171875 -8.03125 L 2.171875 -18.484375 C 2.171875 -18.984375 2.34375 -19.398438 2.6875 -19.734375 C 3.03125 -20.066406 3.472656 -20.234375 4.015625 -20.234375 C 4.453125 -20.234375 4.847656 -20.066406 5.203125 -19.734375 C 5.566406 -19.398438 5.75 -18.984375 5.75 -18.484375 L 5.75 -8.03125 C 5.75 -7.0625 5.953125 -6.222656 6.359375 -5.515625 C 6.773438 -4.816406 7.320312 -4.273438 8 -3.890625 C 8.6875 -3.515625 9.414062 -3.328125 10.1875 -3.328125 C 11.019531 -3.328125 11.789062 -3.515625 12.5 -3.890625 C 13.21875 -4.273438 13.796875 -4.816406 14.234375 -5.515625 C 14.679688 -6.222656 14.90625 -7.0625 14.90625 -8.03125 L 14.90625 -18.484375 C 14.90625 -18.984375 15.046875 -19.398438 15.328125 -19.734375 C 15.617188 -20.066406 16.015625 -20.234375 16.515625 -20.234375 Z M 16.515625 -20.234375 "/></g></g></g><g fill="#ffffff" fill-opacity="1"><g transform="translate(178.702049, 196.301163)"><g><path d="M 8.65625 0.28125 C 7.3125 0.28125 6.097656 0.113281 5.015625 -0.21875 C 3.941406 -0.550781 2.914062 -1.144531 1.9375 -2 C 1.6875 -2.207031 1.492188 -2.445312 1.359375 -2.71875 C 1.222656 -2.988281 1.15625 -3.253906 1.15625 -3.515625 C 1.15625 -3.960938 1.3125 -4.351562 1.625 -4.6875 C 1.945312 -5.03125 2.347656 -5.203125 2.828125 -5.203125 C 3.191406 -5.203125 3.519531 -5.082031 3.8125 -4.84375 C 4.539062 -4.25 5.265625 -3.796875 5.984375 -3.484375 C 6.710938 -3.179688 7.601562 -3.03125 8.65625 -3.03125 C 9.375 -3.03125 10.03125 -3.140625 10.625 -3.359375 C 11.21875 -3.585938 11.695312 -3.890625 12.0625 -4.265625 C 12.4375 -4.640625 12.625 -5.066406 12.625 -5.546875 C 12.625 -6.117188 12.445312 -6.609375 12.09375 -7.015625 C 11.75 -7.421875 11.21875 -7.757812 10.5 -8.03125 C 9.789062 -8.3125 8.890625 -8.53125 7.796875 -8.6875 C 6.753906 -8.84375 5.835938 -9.078125 5.046875 -9.390625 C 4.265625 -9.710938 3.609375 -10.117188 3.078125 -10.609375 C 2.546875 -11.097656 2.144531 -11.675781 1.875 -12.34375 C 1.601562 -13.007812 1.46875 -13.753906 1.46875 -14.578125 C 1.46875 -15.828125 1.789062 -16.894531 2.4375 -17.78125 C 3.082031 -18.664062 3.953125 -19.335938 5.046875 -19.796875 C 6.148438 -20.265625 7.363281 -20.5 8.6875 -20.5 C 9.9375 -20.5 11.09375 -20.3125 12.15625 -19.9375 C 13.226562 -19.5625 14.101562 -19.085938 14.78125 -18.515625 C 15.34375 -18.066406 15.625 -17.554688 15.625 -16.984375 C 15.625 -16.554688 15.457031 -16.164062 15.125 -15.8125 C 14.800781 -15.46875 14.414062 -15.296875 13.96875 -15.296875 C 13.6875 -15.296875 13.429688 -15.382812 13.203125 -15.5625 C 12.890625 -15.832031 12.472656 -16.085938 11.953125 -16.328125 C 11.429688 -16.566406 10.878906 -16.769531 10.296875 -16.9375 C 9.722656 -17.101562 9.1875 -17.1875 8.6875 -17.1875 C 7.863281 -17.1875 7.164062 -17.078125 6.59375 -16.859375 C 6.03125 -16.648438 5.601562 -16.363281 5.3125 -16 C 5.019531 -15.632812 4.875 -15.207031 4.875 -14.71875 C 4.875 -14.144531 5.039062 -13.671875 5.375 -13.296875 C 5.71875 -12.921875 6.207031 -12.617188 6.84375 -12.390625 C 7.476562 -12.171875 8.238281 -11.976562 9.125 -11.8125 C 10.28125 -11.601562 11.296875 -11.351562 12.171875 -11.0625 C 13.046875 -10.769531 13.769531 -10.394531 14.34375 -9.9375 C 14.925781 -9.488281 15.359375 -8.921875 15.640625 -8.234375 C 15.929688 -7.554688 16.078125 -6.726562 16.078125 -5.75 C 16.078125 -4.5 15.726562 -3.421875 15.03125 -2.515625 C 14.34375 -1.609375 13.4375 -0.914062 12.3125 -0.4375 C 11.1875 0.0390625 9.96875 0.28125 8.65625 0.28125 Z M 8.65625 0.28125 "/></g></g></g><g fill="#ffffff" fill-opacity="1"><g transform="translate(195.942801, 196.301163)"><g><path d="M 9.015625 0 C 8.472656 0 8.023438 -0.164062 7.671875 -0.5 C 7.328125 -0.84375 7.15625 -1.265625 7.15625 -1.765625 L 7.15625 -18.515625 L 10.921875 -18.515625 L 10.921875 -1.765625 C 10.921875 -1.265625 10.738281 -0.84375 10.375 -0.5 C 10.019531 -0.164062 9.566406 0 9.015625 0 Z M 2.625 -16.890625 C 2.125 -16.890625 1.703125 -17.039062 1.359375 -17.34375 C 1.023438 -17.65625 0.859375 -18.0625 0.859375 -18.5625 C 0.859375 -19.0625 1.023438 -19.460938 1.359375 -19.765625 C 1.703125 -20.066406 2.125 -20.21875 2.625 -20.21875 L 15.453125 -20.21875 C 15.953125 -20.21875 16.367188 -20.0625 16.703125 -19.75 C 17.035156 -19.4375 17.203125 -19.03125 17.203125 -18.53125 C 17.203125 -18.03125 17.035156 -17.628906 16.703125 -17.328125 C 16.367188 -17.035156 15.953125 -16.890625 15.453125 -16.890625 Z M 2.625 -16.890625 "/></g></g></g><g fill="#ffffff" fill-opacity="1"><g transform="translate(214.02104, 196.301163)"><g/></g></g><g fill="#ffffff" fill-opacity="1"><g transform="translate(222.107148, 196.301163)"><g><path d="M 10.828125 -20.21875 C 12.210938 -20.21875 13.441406 -19.957031 14.515625 -19.4375 C 15.597656 -18.914062 16.507812 -18.1875 17.25 -17.25 C 17.988281 -16.320312 18.546875 -15.242188 18.921875 -14.015625 C 19.296875 -12.796875 19.484375 -11.492188 19.484375 -10.109375 C 19.484375 -8.242188 19.144531 -6.546875 18.46875 -5.015625 C 17.800781 -3.484375 16.828125 -2.265625 15.546875 -1.359375 C 14.265625 -0.453125 12.691406 0 10.828125 0 L 3.921875 0 C 3.421875 0 3.003906 -0.164062 2.671875 -0.5 C 2.335938 -0.84375 2.171875 -1.265625 2.171875 -1.765625 L 2.171875 -18.453125 C 2.171875 -18.953125 2.335938 -19.367188 2.671875 -19.703125 C 3.003906 -20.046875 3.421875 -20.21875 3.921875 -20.21875 Z M 10.546875 -3.328125 C 11.753906 -3.328125 12.742188 -3.640625 13.515625 -4.265625 C 14.285156 -4.890625 14.847656 -5.710938 15.203125 -6.734375 C 15.554688 -7.765625 15.734375 -8.890625 15.734375 -10.109375 C 15.734375 -11.015625 15.628906 -11.875 15.421875 -12.6875 C 15.222656 -13.507812 14.910156 -14.234375 14.484375 -14.859375 C 14.066406 -15.484375 13.53125 -15.976562 12.875 -16.34375 C 12.21875 -16.707031 11.441406 -16.890625 10.546875 -16.890625 L 5.484375 -16.890625 L 5.78125 -17.15625 L 5.78125 -3 L 5.609375 -3.328125 Z M 10.546875 -3.328125 "/></g></g></g><g fill="#ffffff" fill-opacity="1"><g transform="translate(242.755613, 196.301163)"><g><path d="M 20.765625 -10.109375 C 20.765625 -8.660156 20.519531 -7.3125 20.03125 -6.0625 C 19.550781 -4.8125 18.875 -3.707031 18 -2.75 C 17.125 -1.800781 16.082031 -1.054688 14.875 -0.515625 C 13.675781 0.015625 12.363281 0.28125 10.9375 0.28125 C 9.519531 0.28125 8.210938 0.015625 7.015625 -0.515625 C 5.816406 -1.054688 4.78125 -1.800781 3.90625 -2.75 C 3.03125 -3.707031 2.351562 -4.8125 1.875 -6.0625 C 1.394531 -7.3125 1.15625 -8.660156 1.15625 -10.109375 C 1.15625 -11.546875 1.394531 -12.890625 1.875 -14.140625 C 2.351562 -15.398438 3.03125 -16.503906 3.90625 -17.453125 C 4.78125 -18.410156 5.816406 -19.15625 7.015625 -19.6875 C 8.210938 -20.226562 9.519531 -20.5 10.9375 -20.5 C 12.363281 -20.5 13.675781 -20.226562 14.875 -19.6875 C 16.082031 -19.15625 17.125 -18.410156 18 -17.453125 C 18.875 -16.503906 19.550781 -15.398438 20.03125 -14.140625 C 20.519531 -12.890625 20.765625 -11.546875 20.765625 -10.109375 Z M 17 -10.109375 C 17 -11.398438 16.738281 -12.566406 16.21875 -13.609375 C 15.707031 -14.660156 15 -15.492188 14.09375 -16.109375 C 13.1875 -16.722656 12.132812 -17.03125 10.9375 -17.03125 C 9.75 -17.03125 8.703125 -16.722656 7.796875 -16.109375 C 6.890625 -15.492188 6.179688 -14.664062 5.671875 -13.625 C 5.160156 -12.582031 4.90625 -11.410156 4.90625 -10.109375 C 4.90625 -8.816406 5.160156 -7.644531 5.671875 -6.59375 C 6.179688 -5.550781 6.890625 -4.71875 7.796875 -4.09375 C 8.703125 -3.476562 9.75 -3.171875 10.9375 -3.171875 C 12.132812 -3.171875 13.1875 -3.476562 14.09375 -4.09375 C 15 -4.71875 15.707031 -5.550781 16.21875 -6.59375 C 16.738281 -7.644531 17 -8.816406 17 -10.109375 Z M 17 -10.109375 "/></g></g></g><g fill="#ffffff" fill-opacity="1"><g transform="translate(264.674761, 196.301163)"><g/></g></g><g fill="#ffffff" fill-opacity="1"><g transform="translate(272.760869, 196.301163)"><g><path d="M 5.78125 -1.765625 C 5.78125 -1.265625 5.59375 -0.84375 5.21875 -0.5 C 4.851562 -0.164062 4.429688 0 3.953125 0 C 3.410156 0 2.976562 -0.164062 2.65625 -0.5 C 2.332031 -0.84375 2.171875 -1.265625 2.171875 -1.765625 L 2.171875 -18.453125 C 2.171875 -18.953125 2.34375 -19.367188 2.6875 -19.703125 C 3.03125 -20.046875 3.472656 -20.21875 4.015625 -20.21875 C 4.472656 -20.21875 4.878906 -20.046875 5.234375 -19.703125 C 5.597656 -19.367188 5.78125 -18.953125 5.78125 -18.453125 Z M 5.78125 -1.765625 "/></g></g></g><g fill="#ffffff" fill-opacity="1"><g transform="translate(280.702599, 196.301163)"><g><path d="M 9.015625 0 C 8.472656 0 8.023438 -0.164062 7.671875 -0.5 C 7.328125 -0.84375 7.15625 -1.265625 7.15625 -1.765625 L 7.15625 -18.515625 L 10.921875 -18.515625 L 10.921875 -1.765625 C 10.921875 -1.265625 10.738281 -0.84375 10.375 -0.5 C 10.019531 -0.164062 9.566406 0 9.015625 0 Z M 2.625 -16.890625 C 2.125 -16.890625 1.703125 -17.039062 1.359375 -17.34375 C 1.023438 -17.65625 0.859375 -18.0625 0.859375 -18.5625 C 0.859375 -19.0625 1.023438 -19.460938 1.359375 -19.765625 C 1.703125 -20.066406 2.125 -20.21875 2.625 -20.21875 L 15.453125 -20.21875 C 15.953125 -20.21875 16.367188 -20.0625 16.703125 -19.75 C 17.035156 -19.4375 17.203125 -19.03125 17.203125 -18.53125 C 17.203125 -18.03125 17.035156 -17.628906 16.703125 -17.328125 C 16.367188 -17.035156 15.953125 -16.890625 15.453125 -16.890625 Z M 2.625 -16.890625 "/></g></g></g></svg>